PathFileType	4	(X/Y/Z)	C:\Users\chris\Documents\GitHub\baseballds\vids\pitch5_Sports2D\pitch5_Sports2D_px_person02.trc
DataRate	CameraRate	NumFrames	NumMarkers	Units	OrigDataRate	OrigDataStartFrame	OrigNumFrames
30	30	5	22	m	30	74	149
Frame#	Time	Hip			RHip			RKnee			RAnkle			RBigToe			RSmallToe			RHeel			LHip			LKnee			LAnkle			LBigToe			LSmallToe			LHeel			Neck			Head			Nose			RShoulder			RElbow			RWrist			LShoulder			LElbow			LWrist		
		X1	Y1	Z1	X2	Y2	Z2	X3	Y3	Z3	X4	Y4	Z4	X5	Y5	Z5	X6	Y6	Z6	X7	Y7	Z7	X8	Y8	Z8	X9	Y9	Z9	X10	Y10	Z10	X11	Y11	Z11	X12	Y12	Z12	X13	Y13	Z13	X14	Y14	Z14	X15	Y15	Z15	X16	Y16	Z16	X17	Y17	Z17	X18	Y18	Z18	X19	Y19	Z19	X20	Y20	Z20	X21	Y21	Z21	X22	Y22	Z22
74	2.466666666666667	1422.1774563775514	503.8439231525556	0.0	1431.250774722114	504.63025597672856	0.0	1435.6943999741977	546.3437660807974	0.0	1424.9197715651662	580.6886952749485	0.0	1432.5448635933708	586.5547891471919	0.0	1433.5411631515021	588.9473760329996	0.0	1421.3705742863738	585.0147254538534	0.0	1413.0644333468294	502.674640966944	0.0	1406.5992206100268	544.1702788467492	0.0	1394.4879985532073	537.5752353782887	0.0	1383.1497220435851	546.5154773802196	0.0	1382.39889330255	546.7497755936055	0.0	1391.1041692961144	532.2417547385932	0.0	1432.8403898077022	457.71810702269613	0.0	1439.1257510978232	433.98283189858637	0.0	1438.2360921928303	446.8339487246038	0.0	1444.9927035426701	465.8692429668926	0.0	1446.7088131513633	486.5954610575957	0.0	1456.5691482718344	492.5715122522082	0.0	1415.627387957664	463.3593836191397	0.0	1401.203846167758	483.5267557932711	0.0	1416.2867468686577	491.50676734099386	0.0
75	2.5	1427.4492916070221	504.68205076646956	0.0	1436.3169659753685	505.1153800742214	0.0	1438.5072798042431	547.808502859677	0.0	1425.0558568803608	580.8432119528786	0.0	1432.8245022542521	586.6187551600455	0.0	1433.4963995097285	589.2112625883383	0.0	1420.741345929859	585.4829363482413	0.0	1418.1399977296346	503.2422878417507	0.0	1414.5862743912705	544.8274147118374	0.0	1402.398209137481	539.5852722886405	0.0	1393.7762896869083	550.4537913176881	0.0	1391.8776615863328	549.834956641956	0.0	1398.8185727693026	534.0083507430895	0.0	1438.5490395327447	458.489478315974	0.0	1445.1484853004463	434.64438104610525	0.0	1443.0990022002832	447.54863089498633	0.0	1451.707509275213	467.21017665693677	0.0	1456.1786191698548	490.2694751951478	0.0	1460.753300485107	492.3441199863794	0.0	1420.6179653892245	463.3762177993066	0.0	1406.0385717301476	483.98867816593076	0.0	1419.8674224462836	491.9876604985474	0.0
76	2.533333333333333	1432.5503336710708	504.13005828000007	0.0	1441.4070251741439	504.5275067792478	0.0	1439.9202121086632	548.1056362688568	0.0	1425.4572015389435	580.9181661520731	0.0	1432.2239440558042	586.8756713728512	0.0	1433.007437627004	589.4343870663957	0.0	1420.352362745508	586.1241772150398	0.0	1422.988114495853	502.587171305575	0.0	1421.8131047441796	542.901219815883	0.0	1410.7946925236633	542.7282070979652	0.0	1405.368634545728	557.8770313120945	0.0	1402.0244731853654	555.7052788031787	0.0	1407.093623883839	537.5611793226442	0.0	1443.5713981675342	457.32937827009664	0.0	1450.7358930591245	433.83976756020394	0.0	1447.8542861030087	446.5500392656736	0.0	1457.938544396185	466.28637317564267	0.0	1464.921438397017	490.42574807891384	0.0	1461.0893811346164	491.47649297127504	0.0	1424.8811934611567	462.00203118669356	0.0	1410.5295174346245	483.10047408835356	0.0	1421.6722445059609	492.1427571925451	0.0
77	2.5666666666666664	1437.507239776427	502.3179503037563	0.0	1446.316316083431	503.0897286838832	0.0	1440.9556583749265	546.5792312942933	0.0	1426.6254539770632	580.0063334591139	0.0	1431.3214844786248	587.1963001448305	0.0	1432.301341423377	589.0804758591138	0.0	1420.9514165400128	585.2241106754964	0.0	1427.6949121715056	500.92811197382144	0.0	1428.3293673920098	539.4726780690011	0.0	1419.5701404960016	548.2230479546097	0.0	1417.2166442627497	566.4245600640661	0.0	1412.6518513007184	563.3612138097683	0.0	1416.1428979367101	544.8709126009279	0.0	1448.381505013312	454.9165072167887	0.0	1456.0333921446863	431.4969456611469	0.0	1452.816825786721	444.21031105492335	0.0	1463.7732518805335	464.01887859882106	0.0	1472.0219955774821	488.14124690701345	0.0	1461.687173430557	490.6930652531315	0.0	1429.1527761730274	460.0173609409434	0.0	1414.7734974587297	481.2537876789411	0.0	1423.2976550477931	491.54648676683706	0.0
78	2.6	1442.466846830085	499.7375849398656	0.0	1451.0486105682908	501.1476156437245	0.0	1442.7934289021985	543.5736536879481	0.0	1429.1152148934418	577.3520367001177	0.0	1431.4003172658136	587.6179418587894	0.0	1432.3384395686605	588.4797302814662	0.0	1423.1007214156893	582.2001783659202	0.0	1432.607072384481	498.8982194898294	0.0	1434.7941948191597	536.3195919328854	0.0	1428.5591306371678	556.2354143160563	0.0	1429.2897383644208	573.8546595159445	0.0	1424.8078728351481	570.9311448692911	0.0	1425.6804525793893	556.4687302136622	0.0	1453.5135677229207	451.892051407048	0.0	1460.8840189339503	428.49630811823	0.0	1457.622254950192	441.0606339629369	0.0	1469.2938551241132	461.22374238727684	0.0	1477.5615758581387	485.0195848224058	0.0	1464.9522272923382	488.84491556326674	0.0	1434.0871263792496	457.65412377120543	0.0	1419.3951782547338	478.45652549904395	0.0	1426.6368890524873	488.21434449370054	0.0
